<svg width="867" height="2500" viewBox="0 0 867 2500" fill="none" xmlns="http://www.w3.org/2000/svg">
<path fill-rule="evenodd" clip-rule="evenodd" d="M866.333 1532.69V-363H799.667V1532.69C799.667 1569.51 769.82 1599.36 733 1599.36H533C508.714 1599.36 485.945 1605.85 466.333 1617.19V107H466V-362.81H399.429V967.234C379.845 955.893 357.108 949.4 332.857 949.4H133.143C96.3755 949.4 66.5714 919.558 66.5714 882.744V-362.81H0V882.744C0 956.369 59.6114 1016.06 133.143 1016.06H332.857C369.624 1016.06 399.429 1045.9 399.429 1082.71V2128.19H399.667V2598.38H466.333V1732.69C466.333 1695.87 496.181 1666.02 533 1666.02H733C806.637 1666.02 866.333 1606.33 866.333 1532.69Z" fill="#f5f5f59c"/>
</svg>
